<svg viewBox="0 0 592 592" fill="none" xmlns="http://www.w3.org/2000/svg">
<circle cx="296" cy="296" r="296" fill="black"/>
<g filter="url(#filter0_i_0_1)">
<path d="M510.28 408.457C523.167 421.344 523.167 442.238 510.28 455.126C497.393 468.013 476.498 468.013 463.611 455.126L410.587 402.102C420.251 397.022 429.322 390.419 437.448 382.294C445.574 374.168 452.177 365.096 457.256 355.433L510.28 408.457ZM218.96 274.115C231.848 261.227 252.742 261.227 265.63 274.115L319.37 327.855C337.138 345.624 365.948 345.624 383.717 327.855C401.486 310.087 401.485 281.277 383.716 263.508L311.913 191.704C351.391 176.953 397.58 185.448 429.325 217.193C472.673 260.541 472.673 330.823 429.325 374.171C385.977 417.519 315.695 417.518 272.347 374.17C272.229 374.052 272.112 373.934 271.995 373.815L271.993 373.817L218.96 320.784C206.073 307.896 206.073 287.002 218.96 274.115ZM163.806 218.96C206.682 176.084 275.906 175.619 319.356 217.56L319.37 217.546L375.938 274.115C388.825 287.002 388.825 307.896 375.938 320.784C363.051 333.671 342.156 333.671 329.269 320.784L273.761 265.276C255.992 247.507 227.183 247.507 209.415 265.276C191.646 283.045 191.646 311.854 209.415 329.622L281.219 401.427C241.741 416.178 195.552 407.683 163.806 375.938C120.458 332.59 120.458 262.308 163.806 218.96ZM82.4889 137.643C95.3762 124.756 116.271 124.756 129.158 137.643L182.182 190.667C172.518 195.746 163.447 202.349 155.321 210.475C147.195 218.601 140.592 227.672 135.513 237.336L82.4889 184.312C69.6016 171.425 69.6016 150.53 82.4889 137.643Z" fill="white"/>
</g>
<defs>
<filter id="filter0_i_0_1" x="72.8242" y="127.978" width="447.121" height="336.813" filterUnits="userSpaceOnUse" color-interpolation-filters="sRGB">
<feFlood flood-opacity="0" result="BackgroundImageFix"/>
<feBlend mode="normal" in="SourceGraphic" in2="BackgroundImageFix" result="shape"/>
<feColorMatrix in="SourceAlpha" type="matrix" values="0 0 0 0 0 0 0 0 0 0 0 0 0 0 0 0 0 0 127 0" result="hardAlpha"/>
<feOffset dy="25"/>
<feComposite in2="hardAlpha" operator="arithmetic" k2="-1" k3="1"/>
<feColorMatrix type="matrix" values="0 0 0 0 0 0 0 0 0 0 0 0 0 0 0 0 0 0 0.25 0"/>
<feBlend mode="normal" in2="shape" result="effect1_innerShadow_0_1"/>
</filter>
</defs>
</svg>
